0
SECTION
2
HEADER
9
$INSUNITS
70
4
9
$ACADVER
1
AC1014
9
$HANDSEED
5
FFFF
0
ENDSEC
0
SECTION
2
TABLES
0
TABLE
2
VPORT
5
8
100
AcDbSymbolTable
0
ENDTAB
0
TABLE
2
LTYPE
5
5
100
AcDbSymbolTable
0
LTYPE
5
14
100
AcDbSymbolTableRecord
100
AcDbLinetypeTableRecord
2
BYBLOCK
70
0
0
LTYPE
5
15
100
AcDbSymbolTableRecord
100
AcDbLinetypeTableRecord
2
BYLAYER
70
0
0
LTYPE
5
16
100
AcDbSymbolTableRecord
100
AcDbLinetypeTableRecord
2
DASHED
70
0
3
Dashed __ __ __ __ __ __ __ __ __ __ __ __ __ _
72
65
73
2
40
0.75
49
0.5
74
0
49
-0.25
74
0
0
ENDTAB
0
TABLE
2
LAYER
5
2
100
AcDbSymbolTable
70
3
0
LAYER
5
50
100
AcDbSymbolTableRecord
100
AcDbLayerTableRecord
2
1
70
0
62
7
6
DASHED
0
LAYER
5
51
100
AcDbSymbolTableRecord
100
AcDbLayerTableRecord
2
0
70
0
62
7
6
CONTINUOUS
0
ENDTAB
0
TABLE
2
STYLE
5
3
100
AcDbSymbolTable
70
1
0
STYLE
5
11
100
AcDbSymbolTableRecord
100
AcDbTextStyleTableRecord
2
STANDARD
70
0
0
ENDTAB
0
TABLE
2
VIEW
5
6
100
AcDbSymbolTable
70
0
0
ENDTAB
0
TABLE
2
UCS
5
7
100
AcDbSymbolTable
70
0
0
ENDTAB
0
TABLE
2
APPID
5
9
100
AcDbSymbolTable
70
2
0
APPID
5
12
100
AcDbSymbolTableRecord
100
AcDbRegAppTableRecord
2
ACAD
70
0
0
ENDTAB
0
TABLE
2
DIMSTYLE
5
A
100
AcDbSymbolTable
70
1
0
ENDTAB
0
TABLE
2
BLOCK_RECORD
5
1
100
AcDbSymbolTable
70
1
0
BLOCK_RECORD
5
1F
100
AcDbSymbolTableRecord
100
AcDbBlockTableRecord
2
*MODEL_SPACE
0
BLOCK_RECORD
5
1B
100
AcDbSymbolTableRecord
100
AcDbBlockTableRecord
2
*PAPER_SPACE
0
ENDTAB
0
ENDSEC
0
SECTION
2
BLOCKS
0
BLOCK
5
20
100
AcDbEntity
100
AcDbBlockBegin
2
*MODEL_SPACE
0
ENDBLK
5
21
100
AcDbEntity
100
AcDbBlockEnd
0
BLOCK
5
1C
100
AcDbEntity
100
AcDbBlockBegin
2
*PAPER_SPACE
0
ENDBLK
5
1D
100
AcDbEntity
100
AcDbBlockEnd
0
ENDSEC
0
SECTION
2
ENTITIES
0
LWPOLYLINE
5
100
100
AcDbEntity
8
0
100
AcDbPolyline
90
9
70
1
43
0.0
10
-55.5625
20
40.687500000000007
10
-55.5625
20
114.88749935589399
42
0.41421324125965181
10
-56.562498903650003
20
115.88749935589341
10
-57.149999999999999
20
115.88750000000002
10
-245.0625
20
115.88750000000002
42
0.41421356237309503
10
-246.06250000000003
20
114.88750000000002
10
-246.06250000000003
20
40.687500000000007
42
0.41421356237309503
10
-245.0625
20
39.687499999999993
10
-56.5625
20
39.6875
42
0.41421356237309503
0
LWPOLYLINE
5
101
100
AcDbEntity
8
0
100
AcDbPolyline
90
8
70
1
43
0.0
10
-166.83749030063899
20
56.212082566224396
42
0.41421356237309503
10
-167.33749030063899
20
55.71208256622441
10
-167.33749030063902
20
42.712082566224403
42
0.41421356237309503
10
-166.83749030063899
20
42.212082566224403
10
-153.83749030063899
20
42.212082566224396
42
0.41421356237309503
10
-153.33749030063899
20
42.712082566224403
10
-153.33749030063902
20
55.71208256622441
42
0.41421356237309503
10
-153.83749030063899
20
56.21208256622441
0
LWPOLYLINE
5
102
100
AcDbEntity
8
0
100
AcDbPolyline
90
8
70
1
43
0.0
10
-148.28749030063901
20
42.712082566224403
10
-148.28749030063901
20
55.71208256622441
42
-0.41421356237309503
10
-147.78749030063901
20
56.212082566224396
10
-134.78749030063904
20
56.212082566224417
42
-0.41421356237309503
10
-134.28749030063901
20
55.71208256622441
10
-134.28749030063904
20
42.712082566224403
42
-0.41421356237309503
10
-134.78749030063904
20
42.21208256622441
10
-147.78749030063901
20
42.212082566224396
42
-0.41421356237309503
0
LWPOLYLINE
5
103
100
AcDbEntity
8
0
100
AcDbPolyline
90
8
70
1
43
0.0
10
-58.587490300639104
20
42.212082566224396
42
0.41421356237309503
10
-58.087490300639089
20
42.712082566224403
10
-58.087490300639132
20
55.71208256622441
42
0.41421356237309503
10
-58.587490300639104
20
56.212082566224311
10
-71.587490300639104
20
56.212082566224382
42
0.41421356237309503
10
-72.087490300639104
20
55.71208256622441
10
-72.087490300639118
20
42.712082566224403
42
0.41421356237309503
10
-71.587490300639104
20
42.212082566224403
0
LWPOLYLINE
5
104
100
AcDbEntity
8
0
100
AcDbPolyline
90
8
70
1
43
0.0
10
-96.687490300639098
20
42.21208256622441
42
0.41421356237309503
10
-96.187490300639112
20
42.712082566224403
10
-96.187490300639098
20
55.71208256622441
42
0.41421356237309503
10
-96.687490300639098
20
56.21208256622441
10
-109.68749030063901
20
56.212082566224382
42
0.41421356237309503
10
-110.18749030063901
20
55.71208256622441
10
-110.18749030063898
20
42.712082566224403
42
0.41421356237309503
10
-109.68749030063901
20
42.212082566224403
0
LWPOLYLINE
5
105
100
AcDbEntity
8
0
100
AcDbPolyline
90
8
70
1
43
0.0
10
-129.237490300639
20
42.712082566224403
42
0.41421356237309503
10
-128.737490300639
20
42.212082566224396
10
-115.73749030063901
20
42.21208256622441
42
0.41421356237309503
10
-115.237490300639
20
42.712082566224403
10
-115.23749030063904
20
55.71208256622441
42
0.41421356237309503
10
-115.73749030063901
20
56.212082566224311
10
-128.737490300639
20
56.212082566224382
42
0.41421356237309503
10
-129.237490300639
20
55.71208256622441
0
LWPOLYLINE
5
106
100
AcDbEntity
8
0
100
AcDbPolyline
90
8
70
1
43
0.0
10
-91.137490300639115
20
42.712082566224403
10
-91.137490300639072
20
55.71208256622441
42
-0.41421356237309503
10
-90.637490300639101
20
56.212082566224382
10
-77.637490300639101
20
56.212082566224417
42
-0.41421356237309503
10
-77.137490300639101
20
55.71208256622441
10
-77.137490300639101
20
42.712082566224403
42
-0.41421356237309503
10
-77.637490300639101
20
42.212082566224396
10
-90.637490300639101
20
42.212082566224396
42
-0.41421356237309503
0
LWPOLYLINE
5
107
100
AcDbEntity
8
0
100
AcDbPolyline
90
8
70
1
43
0.0
10
-185.887490300639
20
56.21208256622441
10
-172.887490300639
20
56.212082566224417
42
-0.41421356237309503
10
-172.387490300639
20
55.71208256622441
10
-172.387490300639
20
42.712082566224403
42
-0.41421356237309503
10
-172.887490300639
20
42.212082566224396
10
-185.887490300639
20
42.212082566224431
42
-0.41421356237309503
10
-186.387490300639
20
42.712082566224403
10
-186.38749030063903
20
55.71208256622441
42
-0.41421356237309503
0
LWPOLYLINE
5
108
100
AcDbEntity
8
0
100
AcDbPolyline
90
8
70
1
43
0.0
10
-96.687490300639098
20
61.262082566224407
10
-109.68749030063901
20
61.262082566224336
42
-0.41421356237315227
10
-110.18749030063898
20
61.762082566224407
10
-110.18749030063901
20
74.762082566224393
42
-0.41421356237309503
10
-109.68749030063901
20
75.262082566224407
10
-96.687490300639098
20
75.262082566224407
42
-0.41421356237309503
10
-96.187490300639098
20
74.762082566224393
10
-96.187490300639212
20
61.762082566224308
42
-0.41421356237309503
0
LWPOLYLINE
5
109
100
AcDbEntity
8
0
100
AcDbPolyline
90
8
70
1
43
0.0
10
-58.087490300639104
20
74.762082566224393
10
-58.087490300639111
20
61.762082566224308
42
-0.41421356237309503
10
-58.587490300639104
20
61.262082566224322
10
-71.587490300639104
20
61.262082566224301
42
-0.41421356237309503
10
-72.087490300639118
20
61.762082566224308
10
-72.087490300639118
20
74.762082566224393
42
-0.41421356237309503
10
-71.587490300639104
20
75.262082566224407
10
-58.587490300639104
20
75.262082566224393
42
-0.41421356237309503
0
LWPOLYLINE
5
110
100
AcDbEntity
8
0
100
AcDbPolyline
90
8
70
1
43
0.0
10
-128.737490300639
20
75.262082566224393
10
-115.73749030063901
20
75.262082566224365
42
-0.41421356237309503
10
-115.23749030063904
20
74.762082566224393
10
-115.237490300639
20
61.762082566224407
42
-0.41421356237309503
10
-115.73749030063901
20
61.2620825662244
10
-128.737490300639
20
61.2620825662244
42
-0.41421356237309503
10
-129.237490300639
20
61.762082566224407
10
-129.237490300639
20
74.762082566224393
42
-0.41421356237309503
0
LWPOLYLINE
5
111
100
AcDbEntity
8
0
100
AcDbPolyline
90
8
70
1
43
0.0
10
-134.78749030063904
20
61.262082566224407
10
-147.78749030063901
20
61.2620825662244
42
-0.41421356237309503
10
-148.28749030063901
20
61.762082566224407
10
-148.28749030063901
20
74.762082566224393
42
-0.41421356237309503
10
-147.78749030063901
20
75.262082566224379
10
-134.78749030063904
20
75.262082566224407
42
-0.41421356237309503
10
-134.28749030063901
20
74.762082566224393
10
-134.28749030063901
20
61.762082566224407
42
-0.41421356237309503
0
LWPOLYLINE
5
112
100
AcDbEntity
8
0
100
AcDbPolyline
90
8
70
1
43
0.0
10
-77.637490300639101
20
61.262082566224322
42
0.41421356237309503
10
-77.137490300639115
20
61.762082566224308
10
-77.137490300639101
20
74.762082566224393
42
0.41421356237309503
10
-77.637490300639101
20
75.262082566224393
10
-90.637490300639101
20
75.262082566224407
42
0.41421356237309503
10
-91.137490300639115
20
74.762082566224393
10
-91.137490300639115
20
61.762082566224308
42
0.41421356237309503
10
-90.637490300639101
20
61.262082566224407
0
LWPOLYLINE
5
113
100
AcDbEntity
8
0
100
AcDbPolyline
90
8
70
1
43
0.0
10
-224.48749030063897
20
42.712082566224403
42
0.41421356237309503
10
-223.987490300639
20
42.212082566224431
10
-210.987490300639
20
42.212082566224396
42
0.41421356237309503
10
-210.48749030063902
20
42.712082566224403
10
-210.48749030063897
20
55.71208256622441
42
0.41421356237309503
10
-210.987490300639
20
56.21208256622441
10
-223.987490300639
20
56.212082566224382
42
0.41421356237309503
10
-224.48749030063902
20
55.71208256622441
0
LWPOLYLINE
5
114
100
AcDbEntity
8
0
100
AcDbPolyline
90
8
70
1
43
0.0
10
-229.53749030063904
20
55.71208256622441
42
0.41421356237309503
10
-230.03749030063901
20
56.212082566224382
10
-243.03749030063901
20
56.212082566224382
42
0.41421356237309503
10
-243.53749030063904
20
55.71208256622441
10
-243.53749030063904
20
42.712082566224403
42
0.41421356237309503
10
-243.03749030063901
20
42.212082566224403
10
-230.03749030063901
20
42.212082566224396
42
0.41421356237309503
10
-229.53749030063904
20
42.712082566224403
0
LWPOLYLINE
5
115
100
AcDbEntity
8
0
100
AcDbPolyline
90
8
70
1
43
0.0
10
-210.987490300639
20
61.262082566224407
10
-223.987490300639
20
61.262082566224436
42
-0.41421356237309503
10
-224.48749030063897
20
61.762082566224407
10
-224.48749030063902
20
74.762082566224393
42
-0.41421356237309503
10
-223.987490300639
20
75.262082566224407
10
-210.987490300639
20
75.262082566224436
42
-0.41421356237309503
10
-210.48749030063897
20
74.762082566224393
10
-210.487490300639
20
61.762082566224407
42
-0.41421356237309503
0
LWPOLYLINE
5
116
100
AcDbEntity
8
0
100
AcDbPolyline
90
8
70
1
43
0.0
10
-204.93749030063901
20
56.212082566224382
42
0.41421356237309503
10
-205.43749030063901
20
55.71208256622441
10
-205.43749030063904
20
42.712082566224403
42
0.41421356237309503
10
-204.93749030063901
20
42.212082566224403
10
-191.93749030063901
20
42.212082566224396
42
0.41421356237309503
10
-191.43749030063901
20
42.712082566224403
10
-191.43749030063898
20
55.71208256622441
42
0.41421356237309503
10
-191.93749030063901
20
56.21208256622441
0
LWPOLYLINE
5
117
100
AcDbEntity
8
0
100
AcDbPolyline
90
8
70
1
43
0.0
10
-58.087490300639104
20
93.812082566224305
10
-58.087490300639089
20
80.812082566224305
42
-0.41421356237309503
10
-58.587490300639104
20
80.312082566224291
10
-71.587490300639104
20
80.312082566224291
42
-0.41421356237309503
10
-72.087490300639118
20
80.812082566224305
10
-72.087490300639104
20
93.812082566224305
42
-0.41421356237309503
10
-71.587490300639104
20
94.312082566224291
10
-58.587490300639104
20
94.312082566224291
42
-0.41421356237309503
0
LWPOLYLINE
5
118
100
AcDbEntity
8
0
100
AcDbPolyline
90
8
70
1
43
0.0
10
-230.03749030063901
20
61.262082566224407
10
-243.03749030063901
20
61.2620825662244
42
-0.41421356237309503
10
-243.53749030063904
20
61.762082566224407
10
-243.53749030063904
20
74.762082566224393
42
-0.41421356237309503
10
-243.03749030063901
20
75.262082566224407
10
-230.03749030063901
20
75.262082566224365
42
-0.41421356237309503
10
-229.53749030063904
20
74.762082566224393
10
-229.53749030063901
20
61.762082566224407
42
-0.41421356237309503
0
LWPOLYLINE
5
119
100
AcDbEntity
8
0
100
AcDbPolyline
90
8
70
1
43
0.0
10
-109.68749030063901
20
94.312082566224319
10
-96.687490300639098
20
94.312082566224277
42
-0.41421356237309503
10
-96.187490300639126
20
93.812082566224305
10
-96.187490300639098
20
80.812082566224305
42
-0.41421356237309503
10
-96.687490300639098
20
80.312082566224291
10
-109.68749030063901
20
80.312082566224333
42
-0.41421356237309503
10
-110.18749030063898
20
80.812082566224305
10
-110.18749030063901
20
93.812082566224305
42
-0.41421356237309503
0
LWPOLYLINE
5
120
100
AcDbEntity
8
0
100
AcDbPolyline
90
8
70
1
43
0.0
10
-205.43749030063904
20
61.762082566224407
10
-205.43749030063901
20
74.762082566224393
42
-0.41421356237309503
10
-204.93749030063901
20
75.262082566224379
10
-191.93749030063901
20
75.262082566224436
42
-0.41421356237309503
10
-191.43749030063898
20
74.762082566224393
10
-191.43749030063901
20
61.762082566224407
42
-0.41421356237309503
10
-191.93749030063901
20
61.262082566224414
10
-204.93749030063901
20
61.2620825662244
42
-0.41421356237309503
0
LWPOLYLINE
5
121
100
AcDbEntity
8
0
100
AcDbPolyline
90
8
70
1
43
0.0
10
-91.137490300639115
20
80.812082566224305
10
-91.137490300639087
20
93.812082566224305
42
-0.41421356237309503
10
-90.637490300639101
20
94.312082566224291
10
-77.637490300639101
20
94.312082566224319
42
-0.41421356237309503
10
-77.137490300639101
20
93.812082566224305
10
-77.137490300639101
20
80.812082566224305
42
-0.41421356237309503
10
-77.637490300639101
20
80.312082566224291
10
-90.637490300639101
20
80.312082566224291
42
-0.41421356237309503
0
LWPOLYLINE
5
122
100
AcDbEntity
8
0
100
AcDbPolyline
90
8
70
1
43
0.0
10
-186.38749030063903
20
61.762082566224407
10
-186.38749030063903
20
74.762082566224393
42
-0.41421356237309503
10
-185.887490300639
20
75.262082566224407
10
-172.887490300639
20
75.262082566224407
42
-0.41421356237309503
10
-172.387490300639
20
74.762082566224393
10
-172.387490300639
20
61.762082566224407
42
-0.41421356237309503
10
-172.887490300639
20
61.262082566224414
10
-185.887490300639
20
61.2620825662244
42
-0.41421356237309503
0
LWPOLYLINE
5
123
100
AcDbEntity
8
0
100
AcDbPolyline
90
8
70
1
43
0.0
10
-153.83749030063899
20
61.262082566224414
42
0.41421356237309503
10
-153.33749030063902
20
61.762082566224407
10
-153.33749030063899
20
74.762082566224393
42
0.41421356237309503
10
-153.83749030063899
20
75.262082566224393
10
-166.83749030063899
20
75.262082566224379
42
0.41421356237309503
10
-167.33749030063902
20
74.762082566224393
10
-167.33749030063902
20
61.762082566224407
42
0.41421356237309503
10
-166.83749030063899
20
61.262082566224407
0
LWPOLYLINE
5
124
100
AcDbEntity
8
0
100
AcDbPolyline
90
8
70
1
43
0.0
10
-172.887490300639
20
80.312082566224319
10
-185.887490300639
20
80.312082566224333
42
-0.41421356237309503
10
-186.387490300639
20
80.812082566224305
10
-186.38749030063903
20
93.812082566224305
42
-0.41421356237309503
10
-185.887490300639
20
94.312082566224319
10
-172.887490300639
20
94.312082566224319
42
-0.41421356237309503
10
-172.387490300639
20
93.812082566224305
10
-172.387490300639
20
80.812082566224305
42
-0.41421356237309503
0
LWPOLYLINE
5
125
100
AcDbEntity
8
0
100
AcDbPolyline
90
8
70
1
43
0.0
10
-128.737490300639
20
94.312082566224319
42
0.41421356237309503
10
-129.237490300639
20
93.812082566224305
10
-129.237490300639
20
80.812082566224305
42
0.41421356237309503
10
-128.737490300639
20
80.312082566224319
10
-115.73749030063901
20
80.312082566224291
42
0.41421356237309503
10
-115.237490300639
20
80.812082566224305
10
-115.23749030063904
20
93.812082566224305
42
0.41421356237309503
10
-115.73749030063901
20
94.312082566224319
0
LWPOLYLINE
5
126
100
AcDbEntity
8
0
100
AcDbPolyline
90
8
70
1
43
0.0
10
-71.587490300639104
20
113.362082566224
10
-58.587490300639104
20
113.36208256622402
42
-0.41421356237309503
10
-58.087490300639089
20
112.86208256622402
10
-58.087490300639111
20
99.862082566224316
42
-0.41421356237309503
10
-58.587490300639104
20
99.362082566224331
10
-71.587490300639104
20
99.362082566224302
42
-0.41421356237309503
10
-72.087490300639118
20
99.862082566224316
10
-72.087490300639104
20
112.86208256622402
42
-0.41421356237309503
0
LWPOLYLINE
5
127
100
AcDbEntity
8
0
100
AcDbPolyline
90
8
70
1
43
0.0
10
-210.987490300639
20
80.312082566224319
42
0.41421356237309503
10
-210.48749030063902
20
80.812082566224305
10
-210.48749030063897
20
93.812082566224419
42
0.41421356237309503
10
-210.987490300639
20
94.312082566224404
10
-223.987490300639
20
94.312082566224419
42
0.41421356237309503
10
-224.48749030063902
20
93.812082566224419
10
-224.48749030063897
20
80.812082566224305
42
0.41421356237309503
10
-223.987490300639
20
80.312082566224404
0
LWPOLYLINE
5
128
100
AcDbEntity
8
0
100
AcDbPolyline
90
8
70
1
43
0.0
10
-134.78749030063904
20
80.312082566224319
10
-147.78749030063901
20
80.312082566224291
42
-0.41421356237309503
10
-148.28749030063901
20
80.812082566224305
10
-148.28749030063901
20
93.812082566224305
42
-0.41421356237309503
10
-147.78749030063901
20
94.312082566224319
10
-134.78749030063904
20
94.312082566224319
42
-0.41421356237309503
10
-134.28749030063901
20
93.812082566224305
10
-134.28749030063904
20
80.812082566224305
42
-0.41421356237309503
0
LWPOLYLINE
5
129
100
AcDbEntity
8
0
100
AcDbPolyline
90
8
70
1
43
0.0
10
-243.53749030063904
20
80.812082566224404
10
-243.53749030063904
20
93.812082566224419
42
-0.41421356237309503
10
-243.03749030063901
20
94.312082566224404
10
-230.03749030063901
20
94.31208256622439
42
-0.41421356237309503
10
-229.53749030063904
20
93.812082566224419
10
-229.53749030063904
20
80.812082566224305
42
-0.41421356237309503
10
-230.03749030063901
20
80.312082566224319
10
-243.03749030063901
20
80.312082566224404
42
-0.41421356237309503
0
LWPOLYLINE
5
130
100
AcDbEntity
8
0
100
AcDbPolyline
90
8
70
1
43
0.0
10
-166.83749030063899
20
94.312082566224319
42
0.41421356237309503
10
-167.33749030063902
20
93.812082566224305
10
-167.33749030063902
20
80.812082566224305
42
0.41421356237309503
10
-166.83749030063899
20
80.312082566224319
10
-153.83749030063899
20
80.312082566224291
42
0.41421356237309503
10
-153.33749030063899
20
80.812082566224305
10
-153.33749030063899
20
93.812082566224305
42
0.41421356237309503
10
-153.83749030063899
20
94.312082566224319
0
LWPOLYLINE
5
131
100
AcDbEntity
8
0
100
AcDbPolyline
90
8
70
1
43
0.0
10
-191.93749030063901
20
80.312082566224319
10
-204.93749030063901
20
80.312082566224291
42
-0.41421356237309503
10
-205.43749030063904
20
80.812082566224305
10
-205.43749030063904
20
93.812082566224305
42
-0.41421356237309503
10
-204.93749030063901
20
94.312082566224319
10
-191.93749030063901
20
94.312082566224348
42
-0.41421356237309503
10
-191.43749030063898
20
93.812082566224305
10
-191.43749030063901
20
80.812082566224305
42
-0.41421356237309503
0
LWPOLYLINE
5
132
100
AcDbEntity
8
0
100
AcDbPolyline
90
26
70
1
43
0.0
10
-106.68749030063898
20
98.862082566224316
42
0.41421356237309503
10
-106.18749030063901
20
98.362082566224345
10
-100.18749030063901
20
98.362082566224331
42
0.41421356237309503
10
-99.687490300639112
20
98.862082566224316
10
-99.687490300639112
20
99.362082566224302
10
-97.162490300639121
20
99.362082566224302
10
-97.162490300639121
20
98.862082566224316
42
0.41421356237309503
10
-96.662490300639107
20
98.362082566224302
10
-90.662490300639121
20
98.362082566224302
42
0.41421356237309503
10
-90.162490300639107
20
98.862082566224316
10
-90.162490300639107
20
99.362082566224302
10
-77.637490300639101
20
99.362082566224331
42
0.41421356237309503
10
-77.137490300639101
20
99.862082566224316
10
-77.137490300639101
20
112.86208256622402
42
0.41421356237309503
10
-77.637490300639101
20
113.362082566224
10
-90.637490300639101
20
113.362082566224
42
0.006250731488046112
10
-90.649990298349621
20
113.36192629174506
42
0.0062507337769147041
10
-90.662490300639121
20
113.362082566224
10
-96.662490300639107
20
113.362082566224
42
0.0062507337740091377
10
-96.674990302925664
20
113.36192629185948
42
0.00625073148808164
10
-96.687490300639098
20
113.362082566224
10
-109.68749030063901
20
113.362082566224
42
0.41421356237309503
10
-110.18749030063901
20
112.86208256622402
10
-110.18749030063898
20
99.862082566224316
42
0.41421356237309503
10
-109.68749030063901
20
99.362082566224302
10
-106.687490300639
20
99.362082566224302
0
LWPOLYLINE
5
133
100
AcDbEntity
8
0
100
AcDbPolyline
90
8
70
1
43
0.0
10
-243.03749030063901
20
113.362082566224
42
0.41421356237309503
10
-243.53749030063898
20
112.86208256622402
10
-243.53749030063904
20
99.862082566224316
42
0.41421356237309503
10
-243.03749030063901
20
99.362082566224416
10
-230.03749030063901
20
99.362082566224302
42
0.41421356237309503
10
-229.53749030063904
20
99.862082566224316
10
-229.53749030063904
20
112.86208256622402
42
0.41421356237309503
10
-230.03749030063901
20
113.362082566224
0
LWPOLYLINE
5
134
100
AcDbEntity
8
0
100
AcDbPolyline
90
26
70
1
43
0.0
10
-204.93749030063901
20
113.362082566224
10
-191.93749030063901
20
113.36208256622402
42
-0.41421356237309503
10
-191.43749030063901
20
112.86208256622402
10
-191.43749030063901
20
99.862082566224316
42
-0.41421356237309503
10
-191.93749030063901
20
99.362082566224302
10
-194.93749030063901
20
99.362082566224302
10
-194.93749030063901
20
98.862082566224316
42
-0.41421356237309503
10
-195.43749030063904
20
98.362082566224302
10
-201.43749030063901
20
98.362082566224274
42
-0.41421356237309503
10
-201.93749030063907
20
98.862082566224316
10
-201.93749030063901
20
99.362082566224302
10
-204.46249030063899
20
99.362082566224302
10
-204.46249030063899
20
98.862082566224316
42
-0.41421356237309503
10
-204.96249030063899
20
98.362082566224302
10
-210.96249030063902
20
98.362082566224359
42
-0.41421356237309503
10
-211.46249030063905
20
98.862082566224402
10
-211.46249030063899
20
99.362082566224302
10
-223.987490300639
20
99.362082566224345
42
-0.41421356237309503
10
-224.48749030063897
20
99.862082566224316
10
-224.48749030063902
20
112.86208256622402
42
-0.41421356237309503
10
-223.987490300639
20
113.36208256622402
10
-210.987490300639
20
113.36208256622405
42
-0.0062507337766471317
10
-210.97499029835291
20
113.3619262918595
42
-0.0062507314882970337
10
-210.96249030063902
20
113.36208256622402
10
-204.96249030063899
20
113.36208256622402
42
-0.0062507314882859306
10
-204.94999030292232
20
113.36192629174521
42
-0.0062507337737959679
0
LWPOLYLINE
5
135
100
AcDbEntity
8
0
100
AcDbPolyline
90
32
70
1
43
0.0
10
-185.887490300639
20
113.362082566224
10
-115.73749030063901
20
113.36208256622399
42
-0.41421356237309503
10
-115.23749030063904
20
112.86208256622402
10
-115.237490300639
20
99.862082566224316
42
-0.41421356237309503
10
-115.73749030063901
20
99.362082566224302
10
-116.32449030063901
20
99.362082566224302
10
-116.32449030063901
20
98.862082566224316
42
-0.41421356237309503
10
-116.824490300639
20
98.362082566224331
10
-122.82449030063901
20
98.362082566224302
42
-0.41421356237309503
10
-123.32449030063901
20
98.862082566224316
10
-123.324490300639
20
99.362082566224302
10
-135.374490300639
20
99.362082566224302
10
-135.374490300639
20
98.862082566224316
42
-0.41421356237309503
10
-135.87449030063902
20
98.362082566224302
10
-146.70049030063899
20
98.362082566224274
42
-0.41421356237309503
10
-147.20049030063905
20
98.862082566224316
10
-147.20049030063899
20
99.362082566224302
10
-154.42449030063901
20
99.362082566224302
10
-154.42449030063904
20
98.862082566224316
42
-0.41421356237309503
10
-154.92449030063904
20
98.362082566224331
10
-165.750490300639
20
98.362082566224302
42
-0.41421356237309503
10
-166.25049030063903
20
98.862082566224316
10
-166.25049030063903
20
99.362082566224302
10
-178.30049030063901
20
99.362082566224302
10
-178.30049030063904
20
98.862082566224316
42
-0.41421356237309503
10
-178.80049030063901
20
98.362082566224331
10
-184.80049030063901
20
98.362082566224302
42
-0.41421356237309503
10
-185.30049030063904
20
98.862082566224316
10
-185.30049030063904
20
99.362082566224302
10
-185.887490300639
20
99.362082566224345
42
-0.41421356237309503
10
-186.387490300639
20
99.862082566224316
10
-186.387490300639
20
112.86208256622402
42
-0.41421356237309503
0
CIRCLE
5
136
100
AcDbEntity
8
0
100
AcDbCircle
10
-227.01250000000002
20
113.50625000000001
30
0
40
1.0999999999999901
210
0
220
0
230
1
0
CIRCLE
5
137
100
AcDbEntity
8
0
100
AcDbCircle
10
-74.612499999999997
20
113.50625000000001
30
0
40
1.1000000000000001
210
0
220
0
230
1
0
CIRCLE
5
138
100
AcDbEntity
8
0
100
AcDbCircle
10
-227.01250000000002
20
42.068750000000001
30
0
40
1.0999999999999901
210
0
220
0
230
1
0
CIRCLE
5
139
100
AcDbEntity
8
0
100
AcDbCircle
10
-74.612499999999997
20
42.068750000000001
30
0
40
1.1000000000000001
210
0
220
0
230
1
0
ENDSEC
0
SECTION
2
OBJECTS
0
DICTIONARY
5
C
100
AcDbDictionary
3
ACAD_GROUP
350
D
3
ACAD_MLINESTYLE
350
17
0
DICTIONARY
5
D
100
AcDbDictionary
0
DICTIONARY
5
1A
330
C
100
AcDbDictionary
0
DICTIONARY
5
17
100
AcDbDictionary
0
ENDSEC
0
EOF
